<svg width="39" height="39" viewBox="0 0 39 39" fill="none" xmlns="http://www.w3.org/2000/svg">
<g clip-path="url(#clip0_1_16)">
<path d="M19.5 39C30.2696 39 39 30.2696 39 19.5C39 8.73045 30.2696 0 19.5 0C8.73045 0 0 8.73045 0 19.5C0 30.2696 8.73045 39 19.5 39Z" fill="#0030FF"/>
<path d="M12.5608 16.9083H15.3614C15.4195 17.5686 16.0072 17.9937 16.7835 17.9937C17.7369 17.9937 18.3377 17.2305 18.3377 16.293C18.3522 15.5893 17.9125 15.003 17.0621 15.003C16.5629 15.003 16.0797 15.2381 15.8156 15.6038H13.2515C13.2007 15.6038 13.163 15.5544 13.1775 15.5051L14.8202 9.95895H21.5417C21.5765 9.95895 21.6026 9.99088 21.5954 10.0243L21.2007 12.021C21.1731 12.1603 21.0512 12.2604 20.909 12.2604H16.637L16.2118 13.668H16.2553C16.5775 13.4039 17.2377 13.0963 18.2346 13.0963C20.1269 13.0963 21.2413 14.2833 21.2413 16.2045C21.2413 18.5655 19.5116 20.2517 16.7835 20.2517C14.6301 20.2517 12.6943 19.4158 12.5608 16.9083Z" fill="white"/>
<path d="M19.7148 23.0262H17.9546C17.8907 23.0262 17.8414 22.9682 17.853 22.9043L18.1955 21.385C18.2042 21.3386 18.2433 21.3052 18.2912 21.3008C19.7032 21.1978 21.3473 20.2517 21.8131 18.7933C21.8261 18.7541 21.8537 18.7295 21.8958 18.7295H23.4383C23.5022 18.7295 23.5515 18.789 23.5399 18.8514L21.6143 28.7784C21.6041 28.8263 21.562 28.8611 21.5127 28.8611H18.8339C18.7701 28.8611 18.7208 28.8016 18.7324 28.7392L19.8149 23.1481C19.8279 23.0842 19.7786 23.0262 19.7148 23.0262Z" fill="white"/>
<path d="M9.26097 14.1831H7.50077C7.43692 14.1831 7.38758 14.1251 7.39919 14.0613L7.74165 12.5419C7.75036 12.4955 7.78954 12.4621 7.83598 12.4578C9.2479 12.3547 10.892 11.4086 11.3578 9.95026C11.3709 9.91108 11.3984 9.88641 11.4405 9.88641H12.9831C13.0484 9.88641 13.0962 9.94591 13.0846 10.0083L11.159 19.9353C11.1489 19.9832 11.1068 20.0181 11.0574 20.0181H8.38159C8.31629 20.0181 8.26841 19.9586 8.28001 19.8962L9.36109 14.305C9.3756 14.2412 9.32626 14.1831 9.26097 14.1831Z" fill="white"/>
<path d="M23.1989 24.7051C23.1989 21.7158 25.0156 18.7135 28.2893 18.7135C30.6343 18.7135 32.351 20.2009 32.351 22.9319C32.351 25.9632 30.5211 28.938 27.275 28.938C24.872 28.938 23.1989 27.3795 23.1989 24.7051ZM27.3316 26.8368C28.9902 26.8368 29.5054 24.1334 29.5054 22.6605C29.5054 21.8174 29.2761 20.7871 28.2327 20.7871C26.5451 20.7871 26.03 23.5907 26.03 25.049C26.03 25.9502 26.2868 26.8368 27.3316 26.8368Z" fill="white"/>
</g>
<defs>
<clipPath id="clip0_1_16">
<rect width="39" height="39" fill="white"/>
</clipPath>
</defs>
</svg>
