<svg width="28" height="28" viewBox="0 0 28 28" fill="none" xmlns="http://www.w3.org/2000/svg">
<g clip-path="url(#clip0_1_14)">
<path d="M14.0846 0C14.1654 0.103062 14.2367 0.217044 14.3285 0.308502C18.7834 4.74971 23.2396 9.18955 27.6972 13.628C27.7938 13.7243 27.9082 13.8014 28 13.8751C27.1512 14.7064 26.3436 15.4981 25.5441 16.2803C22.3662 13.1141 19.1314 9.89119 15.8966 6.66829C15.8596 6.68672 15.8233 6.70515 15.7863 6.72358V28H12.2603V6.69491C8.98853 9.95534 5.75578 13.1762 2.5477 16.3731C1.69687 15.5248 0.896044 14.7255 0 13.8328C0.0733002 13.7905 0.21305 13.7434 0.306902 13.6499C4.77479 9.20525 9.23857 4.75722 13.7017 0.30782C13.7941 0.215679 13.8661 0.103062 13.9476 0H14.0846Z" fill="white"/>
</g>
<defs>
<clipPath id="clip0_1_14">
<rect width="28" height="28" fill="white"/>
</clipPath>
</defs>
</svg>
